<svg width="408" height="71" viewBox="0 0 408 71" fill="none" xmlns="http://www.w3.org/2000/svg">
<g filter="url(#filter0_d_2764_215)">
<path fill-rule="evenodd" clip-rule="evenodd" d="M12 55.0832L18.9388 35.1164L8.47429 38.1556C8.02382 38.2864 7.54103 38.1045 7.2889 37.7089C7.10737 37.4242 7.07295 37.0698 7.19628 36.7554L17.5102 10.4636L31.8061 7.16259C32.2413 7.0621 32.6969 7.20332 32.999 7.53232C33.374 7.94072 33.4324 8.54835 33.1422 9.02076L24.2449 23.5031H24.6531L35.6877 20.3142C36.0454 20.2108 36.4293 20.3462 36.6431 20.6511C36.8566 20.9556 36.8533 21.3622 36.6349 21.6632L12.3061 55.185L11.6939 56L12 55.0832ZM8.53061 36.7464L18.6327 11.7879L32 8.4262L32.2041 8.62994L22.8216 23.7377C22.7515 23.8507 22.7143 23.9811 22.7143 24.1141C22.7143 24.5081 23.0337 24.8274 23.4276 24.8274H24.2449L35.4694 21.4657L13.6327 52.2308L20.2859 34.5183C20.3373 34.3813 20.3234 34.2283 20.248 34.1029C20.1375 33.9191 19.9183 33.831 19.7113 33.8874L8.83673 36.8482L8.53061 36.7464Z" fill="#ABF1D9"/>
</g>
<g filter="url(#filter1_d_2764_215)">
<path fill-rule="evenodd" clip-rule="evenodd" d="M376 55.0832L382.939 35.1164L372.474 38.1556C372.024 38.2864 371.541 38.1045 371.289 37.7089C371.107 37.4242 371.073 37.0698 371.196 36.7554L381.51 10.4636L395.806 7.16259C396.241 7.0621 396.697 7.20332 396.999 7.53232C397.374 7.94072 397.432 8.54835 397.142 9.02076L388.245 23.5031H388.653L399.688 20.3142C400.045 20.2108 400.429 20.3462 400.643 20.6511C400.857 20.9556 400.853 21.3622 400.635 21.6632L376.306 55.185L375.694 56L376 55.0832ZM372.531 36.7464L382.633 11.7879L396 8.4262L396.204 8.62994L386.822 23.7377C386.751 23.8507 386.714 23.9811 386.714 24.1141C386.714 24.5081 387.034 24.8274 387.428 24.8274H388.245L399.469 21.4657L377.633 52.2308L384.286 34.5183C384.337 34.3813 384.323 34.2283 384.248 34.1029C384.138 33.9191 383.918 33.831 383.711 33.8874L372.837 36.8482L372.531 36.7464Z" fill="#ABF1D9"/>
</g>
<g filter="url(#filter2_d_2764_215)">
<path d="M55 50C55 51.1046 55.8954 52 57 52H64C65.1046 52 66 51.1046 66 50V32.4904C66 30.6237 68.3308 29.7747 69.5314 31.2041L86.4006 51.2864C86.7806 51.7388 87.3412 52 87.932 52H96C97.1046 52 98 51.1046 98 50V12C98 10.8954 97.1046 10 96 10H89C87.8954 10 87 10.8954 87 12V30.5401C87 32.4032 84.6767 33.2543 83.4732 31.832L65.5992 10.7081C65.2192 10.259 64.6607 10 64.0724 10H57C55.8954 10 55 10.8954 55 12V50Z" fill="white"/>
<path fill-rule="evenodd" clip-rule="evenodd" d="M105 52C103.895 52 103 51.1046 103 50V12C103 10.8954 103.895 10 105 10H144C145.105 10 146 10.8954 146 12V50C146 51.1046 145.105 52 144 52H105ZM114 20C112.895 20 112 20.8954 112 22V40C112 41.1046 112.895 42 114 42H134C135.105 42 136 41.1046 136 40V22C136 20.8954 135.105 20 134 20H114Z" fill="white"/>
<path d="M168 51C168 52.1046 168.895 53 170 53H177C178.105 53 179 52.1046 179 51V22C179 20.8954 179.895 20 181 20H194C195.105 20 196 19.1046 196 18V12C196 10.8954 195.105 10 194 10H153C151.895 10 151 10.8954 151 12V18C151 19.1046 151.895 20 153 20H166C167.105 20 168 20.8954 168 22V51Z" fill="white"/>
<path d="M203 52C201.895 52 201 51.1046 201 50V12C201 10.8954 201.895 10 203 10H209C210.105 10 211 10.8954 211 12V50C211 51.1046 210.105 52 209 52H203Z" fill="white"/>
<path d="M218 10C216.895 10 216 10.8954 216 12V50C216 51.1046 216.895 52 218 52H225C226.105 52 227 51.1046 227 50V37C227 35.8954 227.895 35 229 35H257C258.105 35 259 34.1046 259 33V29C259 27.8954 258.105 27 257 27H229C227.895 27 227 26.1046 227 25V22C227 20.8954 227.895 20 229 20H260C261.105 20 262 19.1046 262 18V12C262 10.8954 261.105 10 260 10H218Z" fill="white"/>
<path d="M328 31L312.427 48.6779C311.289 49.9697 312.206 52 313.927 52H323.647C324.192 52 324.713 51.7774 325.091 51.3838L336 40L328 31Z" fill="#00FF94"/>
<path d="M336 40L347.414 51.4142C347.789 51.7893 348.298 52 348.828 52H358.073C359.794 52 360.711 49.9697 359.573 48.6779L344 31L336 40Z" fill="#00FF94"/>
<path d="M344 31L359.573 13.3221C360.711 12.0303 359.794 10 358.073 10H347.408C346.831 10 346.282 10.249 345.902 10.683L336 22L344 31Z" fill="#00FF94"/>
<path fill-rule="evenodd" clip-rule="evenodd" d="M293 50C293 51.1046 292.105 52 291 52H284C282.895 52 282 51.1046 282 50V35.7214C282 35.2552 281.837 34.8036 281.54 34.4447L265.46 15.0553C265.163 14.6964 265 14.2448 265 13.7786V12C265 10.8954 265.895 10 267 10H275.019C275.638 10 276.222 10.2864 276.601 10.7757L286.385 23.4135C287.196 24.4611 288.783 24.4449 289.572 23.3808L298.9 10.8083C299.278 10.2998 299.873 10 300.506 10H311.5V13L293.469 34.4419C293.166 34.8024 293 35.2582 293 35.7291V50Z" fill="white"/>
<path d="M311.5 13L328 31L336 22L324.586 10.5858C324.211 10.2107 323.702 10 323.172 10H311.5V13Z" fill="#00FF94"/>
</g>
<defs>
<filter id="filter0_d_2764_215" x="0.123291" y="0.130737" width="43.6777" height="62.8693" filterUnits="userSpaceOnUse" color-interpolation-filters="sRGB">
<feFlood flood-opacity="0" result="BackgroundImageFix"/>
<feColorMatrix in="SourceAlpha" type="matrix" values="0 0 0 0 0 0 0 0 0 0 0 0 0 0 0 0 0 0 127 0" result="hardAlpha"/>
<feOffset/>
<feGaussianBlur stdDeviation="3.5"/>
<feComposite in2="hardAlpha" operator="out"/>
<feColorMatrix type="matrix" values="0 0 0 0 0.670588 0 0 0 0 0.945098 0 0 0 0 0.85098 0 0 0 1 0"/>
<feBlend mode="normal" in2="BackgroundImageFix" result="effect1_dropShadow_2764_215"/>
<feBlend mode="normal" in="SourceGraphic" in2="effect1_dropShadow_2764_215" result="shape"/>
</filter>
<filter id="filter1_d_2764_215" x="364.123" y="0.130737" width="43.6777" height="62.8693" filterUnits="userSpaceOnUse" color-interpolation-filters="sRGB">
<feFlood flood-opacity="0" result="BackgroundImageFix"/>
<feColorMatrix in="SourceAlpha" type="matrix" values="0 0 0 0 0 0 0 0 0 0 0 0 0 0 0 0 0 0 127 0" result="hardAlpha"/>
<feOffset/>
<feGaussianBlur stdDeviation="3.5"/>
<feComposite in2="hardAlpha" operator="out"/>
<feColorMatrix type="matrix" values="0 0 0 0 0.670588 0 0 0 0 0.945098 0 0 0 0 0.85098 0 0 0 1 0"/>
<feBlend mode="normal" in2="BackgroundImageFix" result="effect1_dropShadow_2764_215"/>
<feBlend mode="normal" in="SourceGraphic" in2="effect1_dropShadow_2764_215" result="shape"/>
</filter>
<filter id="filter2_d_2764_215" x="41" y="0" width="333.077" height="71" filterUnits="userSpaceOnUse" color-interpolation-filters="sRGB">
<feFlood flood-opacity="0" result="BackgroundImageFix"/>
<feColorMatrix in="SourceAlpha" type="matrix" values="0 0 0 0 0 0 0 0 0 0 0 0 0 0 0 0 0 0 127 0" result="hardAlpha"/>
<feOffset dy="4"/>
<feGaussianBlur stdDeviation="7"/>
<feComposite in2="hardAlpha" operator="out"/>
<feColorMatrix type="matrix" values="0 0 0 0 0 0 0 0 0 0 0 0 0 0 0 0 0 0 0.25 0"/>
<feBlend mode="normal" in2="BackgroundImageFix" result="effect1_dropShadow_2764_215"/>
<feBlend mode="normal" in="SourceGraphic" in2="effect1_dropShadow_2764_215" result="shape"/>
</filter>
</defs>
</svg>
